<svg xmlns="http://www.w3.org/2000/svg" width="317.733" height="90.155" viewBox="0 0 317.733 90.155">
  <defs>
    <style>
      .cls-1 {
        fill: #00e0a0;
      }

      .cls-2 {
        fill: #0f0a30;
      }
    </style>
  </defs>
  <g id="Group_86" data-name="Group 86" transform="translate(-521.34 -327.463)">
    <path id="Smiley" class="cls-1" d="M415.027,19278.434l-10.054,2.287a2.434,2.434,0,0,1-.529.057,2.29,2.29,0,0,1-2-3.369l4.862-9.143a36.375,36.375,0,0,1-2.98-7.971,36.855,36.855,0,0,1,.184-18.184,36.291,36.291,0,0,1,3.484-8.531,36.833,36.833,0,0,1,12.448-13.033v23.514a5.934,5.934,0,0,0,11.869,0v-28.312a36.989,36.989,0,0,1,13.845-.24v17.09a5.934,5.934,0,1,0,11.869,0v-12.816a36.8,36.8,0,0,1,13.349,13.154,36.6,36.6,0,0,1-56.341,45.5Zm10.914-5.5a19.225,19.225,0,0,0,26.573,0,17.8,17.8,0,0,0,5.5-12.865H420.436A17.792,17.792,0,0,0,425.941,19272.934Zm20.209-69a5.934,5.934,0,1,1,5.933,5.932A5.936,5.936,0,0,1,446.15,19203.934Zm-25.714,0a5.934,5.934,0,1,1,5.933,5.932A5.936,5.936,0,0,1,420.436,19203.934Z" transform="translate(255.132 -18870.535)"/>
    <path id="Path_10" data-name="Path 10" class="cls-2" d="M-77.84-78.29a16.817,16.817,0,0,0-2.534-5.043,18.1,18.1,0,0,0-3.914-3.914,18.032,18.032,0,0,0-4.918-2.534,17.273,17.273,0,0,0-5.545-.9,17.5,17.5,0,0,0-5.57.9,18.328,18.328,0,0,0-4.968,2.534,17.381,17.381,0,0,0-3.914,3.914,16.253,16.253,0,0,0-2.459,5.043ZM-80.1-60.777a5.067,5.067,0,0,1,3.738,1.48,5.067,5.067,0,0,1,1.48,3.738,5.214,5.214,0,0,1-1.505,3.764A26.944,26.944,0,0,1-94.75-44.97a27.076,27.076,0,0,1-19.871-8.23,27.076,27.076,0,0,1-8.23-19.871,27.076,27.076,0,0,1,8.23-19.871,27.076,27.076,0,0,1,19.871-8.23,27.292,27.292,0,0,1,19.871,8.23,27.291,27.291,0,0,1,6.172,9.058,28.106,28.106,0,0,1,2.057,10.814,4.981,4.981,0,0,1-1.531,3.738,5.175,5.175,0,0,1-3.738,1.48h-39.743a17.152,17.152,0,0,0,2.509,5.043,17.621,17.621,0,0,0,3.889,3.914,18.032,18.032,0,0,0,4.918,2.534,17.428,17.428,0,0,0,5.6.9,17.65,17.65,0,0,0,6.072-1,16.631,16.631,0,0,0,5.118-3.011A5.483,5.483,0,0,1-80.1-60.777Z" transform="translate(718.667 462.588)"/>
    <path id="Path_11" data-name="Path 11" class="cls-2" d="M-231.293-101.172q3.713,0,5.018,3.864l10.187,30.56,10.538-31.513a3.84,3.84,0,0,1,1.606-2.108,5.507,5.507,0,0,1,3.111-.8,5.247,5.247,0,0,1,2.057.4,4.94,4.94,0,0,1,1.656,1.129,5.819,5.819,0,0,1,1.129,1.681,4.861,4.861,0,0,1,.427,2.007,5.639,5.639,0,0,1-.4,2.007l-15.2,45.614a4.836,4.836,0,0,1-1.656,2.409,5.115,5.115,0,0,1-3.262.953,5.089,5.089,0,0,1-3.111-1,4.548,4.548,0,0,1-1.756-2.358l-10.337-31.012L-241.63-48.332a4.554,4.554,0,0,1-1.807,2.409,5.271,5.271,0,0,1-3.111.953,5.159,5.159,0,0,1-3.086-.953,4.874,4.874,0,0,1-1.832-2.409l-15.2-45.614a6.679,6.679,0,0,1-.351-2.007,5.12,5.12,0,0,1,.4-2.007,5.431,5.431,0,0,1,1.1-1.681,4.94,4.94,0,0,1,1.656-1.129,5.247,5.247,0,0,1,2.057-.4,5.2,5.2,0,0,1,3.036.853,4.377,4.377,0,0,1,1.681,2.057L-246.548-66.8l10.187-30.51Q-235.057-101.172-231.293-101.172Z" transform="translate(788.361 462.588)"/>
    <path id="Path_12" data-name="Path 12" class="cls-2" d="M78.589-69.461v-69.8A5.175,5.175,0,0,1,80.069-143a4.981,4.981,0,0,1,3.738-1.531A4.981,4.981,0,0,1,87.546-143a5.175,5.175,0,0,1,1.48,3.738V-74.73h2.409A5.027,5.027,0,0,1,95.123-73.2a5.086,5.086,0,0,1,1.53,3.738,5.027,5.027,0,0,1-1.53,3.688,5.027,5.027,0,0,1-3.688,1.531H83.757a4.945,4.945,0,0,1-3.663-1.531A5.069,5.069,0,0,1,78.589-69.461Z" transform="translate(659.175 481.861)"/>
    <path id="Path_13" data-name="Path 13" class="cls-2" d="M78.589-69.461v-69.8A5.175,5.175,0,0,1,80.069-143a4.981,4.981,0,0,1,3.738-1.531A4.981,4.981,0,0,1,87.546-143a5.175,5.175,0,0,1,1.48,3.738V-74.73h2.409A5.027,5.027,0,0,1,95.123-73.2a5.086,5.086,0,0,1,1.53,3.738,5.027,5.027,0,0,1-1.53,3.688,5.027,5.027,0,0,1-3.688,1.531H83.757a4.945,4.945,0,0,1-3.663-1.531A5.069,5.069,0,0,1,78.589-69.461Z" transform="translate(683.16 481.861)"/>
    <path id="Path_14" data-name="Path 14" class="cls-2" d="M194.312-90.684a17.086,17.086,0,0,0-6.925,1.405,17.763,17.763,0,0,0-5.57,3.789,17.933,17.933,0,0,0-3.738,5.6,17.1,17.1,0,0,0-1.38,6.825,17.1,17.1,0,0,0,1.38,6.825,17.933,17.933,0,0,0,3.738,5.6,17.763,17.763,0,0,0,5.57,3.789,17.085,17.085,0,0,0,6.925,1.405,16.962,16.962,0,0,0,6.875-1.405,17.855,17.855,0,0,0,5.6-3.814,18.1,18.1,0,0,0,3.764-5.6,16.924,16.924,0,0,0,1.38-6.8,16.924,16.924,0,0,0-1.38-6.8,18.1,18.1,0,0,0-3.764-5.6,17.855,17.855,0,0,0-5.6-3.814A16.962,16.962,0,0,0,194.312-90.684Zm17.613,40.5v-1a28.754,28.754,0,0,1-8.179,4.617,27.392,27.392,0,0,1-9.434,1.606,27.076,27.076,0,0,1-19.871-8.23,27.076,27.076,0,0,1-8.23-19.871,27.076,27.076,0,0,1,8.23-19.871,27.076,27.076,0,0,1,19.871-8.23,27.292,27.292,0,0,1,19.871,8.23,27.076,27.076,0,0,1,8.23,19.871v22.882a5.027,5.027,0,0,1-1.531,3.688,5.027,5.027,0,0,1-3.688,1.531,5.086,5.086,0,0,1-3.738-1.531A5.027,5.027,0,0,1,211.925-50.188Z" transform="translate(616.659 462.588)"/>
  </g>
</svg>
