<svg xmlns="http://www.w3.org/2000/svg" xmlns:xlink="http://www.w3.org/1999/xlink" width="120" height="120" viewBox="0 0 120 120">
  <defs>
    <style>
      .cls-1 {
        clip-path: url(#clip-_3);
      }

      .cls-2 {
        opacity: 0.2;
      }

      .cls-3 {
        fill: #00e0a0;
      }
    </style>
    <clipPath id="clip-_3">
      <rect width="120" height="120"/>
    </clipPath>
  </defs>
  <g id="_3" data-name="3" class="cls-1">
    <g id="noun_click_4209698" class="cls-2" transform="translate(4.085 -4.758)">
      <path id="Path_1459" data-name="Path 1459" class="cls-3" d="M88.483,58.295a7.067,7.067,0,0,0-2.917.684,7.167,7.167,0,0,0-7.147-5.747,7.694,7.694,0,0,0-5.251,2.052A7.267,7.267,0,0,0,62.52,52.822V31.341A7.078,7.078,0,0,0,55.227,24.5a7.389,7.389,0,0,0-5.107,2.013,6.487,6.487,0,0,0-2.04,4.828v40.5l-5.689-7.252a9.022,9.022,0,0,0-5.906-3.281,9.336,9.336,0,0,0-6.638,1.639,8.061,8.061,0,0,0-3.647,6.7,8.266,8.266,0,0,0,1.751,5.064L46.912,98.931a83.684,83.684,0,0,1,5.834,8.209c3.355,5.062,4.522,6.978,11.961,6.978H81.336c6.272,0,7.293-4.515,8.022-7.8a9.378,9.378,0,0,1,1.9-4.515c4.23-4.241,4.376-11.356,4.376-14.777v-.41h0V65.136a7.067,7.067,0,0,0-7.149-6.841ZM93,86.617v.41c0,3.01-.146,9.441-3.647,13-1.6,1.505-2.042,3.694-2.626,5.747s-1.459,5.883-5.4,5.883H64.708c-5.834,0-6.418-.958-9.627-5.747-1.313-2.052-3.209-4.926-5.98-8.483L29.992,73.209a6.544,6.544,0,0,1-1.167-3.557,5.646,5.646,0,0,1,2.626-4.789A6.706,6.706,0,0,1,40.2,66.094l8.022,10.4a1.676,1.676,0,0,0,1.6.41,1.37,1.37,0,0,0,.875-1.231V31.341a4.531,4.531,0,0,1,9.043,0V56.653a1.262,1.262,0,0,0,1.167,1.231,1.234,1.234,0,0,0,.919-.114,1.1,1.1,0,0,0,.54-.706A4.66,4.66,0,0,1,70,55.207a4.1,4.1,0,0,1,1.272,3.088v.958a1.274,1.274,0,0,0,1.313,1.231,1.219,1.219,0,0,0,.921-.268,1.066,1.066,0,0,0,.392-.827,4.441,4.441,0,0,1,4.813-3.968,4.354,4.354,0,0,1,4.23,4.515v1.368a1.107,1.107,0,0,0,.875,1.095,1.532,1.532,0,0,0,1.459-.274A4.609,4.609,0,0,1,93,65.136Z" transform="translate(0 5.306)"/>
      <path id="Path_1460" data-name="Path 1460" class="cls-3" d="M59.4,33.836h.41a1.505,1.505,0,0,0,1.231-.821,13.135,13.135,0,0,0,.821-4.515,12.451,12.451,0,0,0-24.765,0,13.135,13.135,0,0,0,.821,4.515,1.258,1.258,0,0,0,2.326-.958,10.261,10.261,0,0,1-.684-3.557,9.851,9.851,0,0,1,19.7,0,7.936,7.936,0,0,1-.684,3.557,1.368,1.368,0,0,0,.821,1.779Z" transform="translate(5.604 2.674)"/>
      <path id="Path_1461" data-name="Path 1461" class="cls-3" d="M40.488,49.508h.684a1.1,1.1,0,0,0,.958-.547,1.231,1.231,0,0,0-.274-1.779,18.608,18.608,0,0,1-8.893-16.008A18.881,18.881,0,1,1,61.969,47.319a1.231,1.231,0,0,0-.41,1.779,1.368,1.368,0,0,0,1.642.41,21.344,21.344,0,1,0-22.712,0Z" transform="translate(1.583)"/>
    </g>
    <g id="noun_click_4209698-2" data-name="noun_click_4209698" transform="translate(-0.915 -4.758)">
      <path id="Path_1459-2" data-name="Path 1459" class="cls-3" d="M88.483,58.295a7.067,7.067,0,0,0-2.917.684,7.167,7.167,0,0,0-7.147-5.747,7.694,7.694,0,0,0-5.251,2.052A7.267,7.267,0,0,0,62.52,52.822V31.341A7.078,7.078,0,0,0,55.227,24.5a7.389,7.389,0,0,0-5.107,2.013,6.487,6.487,0,0,0-2.04,4.828v40.5l-5.689-7.252a9.022,9.022,0,0,0-5.906-3.281,9.336,9.336,0,0,0-6.638,1.639,8.061,8.061,0,0,0-3.647,6.7,8.266,8.266,0,0,0,1.751,5.064L46.912,98.931a83.684,83.684,0,0,1,5.834,8.209c3.355,5.062,4.522,6.978,11.961,6.978H81.336c6.272,0,7.293-4.515,8.022-7.8a9.378,9.378,0,0,1,1.9-4.515c4.23-4.241,4.376-11.356,4.376-14.777v-.41h0V65.136a7.067,7.067,0,0,0-7.149-6.841ZM93,86.617v.41c0,3.01-.146,9.441-3.647,13-1.6,1.505-2.042,3.694-2.626,5.747s-1.459,5.883-5.4,5.883H64.708c-5.834,0-6.418-.958-9.627-5.747-1.313-2.052-3.209-4.926-5.98-8.483L29.992,73.209a6.544,6.544,0,0,1-1.167-3.557,5.646,5.646,0,0,1,2.626-4.789A6.706,6.706,0,0,1,40.2,66.094l8.022,10.4a1.676,1.676,0,0,0,1.6.41,1.37,1.37,0,0,0,.875-1.231V31.341a4.531,4.531,0,0,1,9.043,0V56.653a1.262,1.262,0,0,0,1.167,1.231,1.234,1.234,0,0,0,.919-.114,1.1,1.1,0,0,0,.54-.706A4.66,4.66,0,0,1,70,55.207a4.1,4.1,0,0,1,1.272,3.088v.958a1.274,1.274,0,0,0,1.313,1.231,1.219,1.219,0,0,0,.921-.268,1.066,1.066,0,0,0,.392-.827,4.441,4.441,0,0,1,4.813-3.968,4.354,4.354,0,0,1,4.23,4.515v1.368a1.107,1.107,0,0,0,.875,1.095,1.532,1.532,0,0,0,1.459-.274A4.609,4.609,0,0,1,93,65.136Z" transform="translate(0 5.306)"/>
      <path id="Path_1460-2" data-name="Path 1460" class="cls-3" d="M59.4,33.836h.41a1.505,1.505,0,0,0,1.231-.821,13.135,13.135,0,0,0,.821-4.515,12.451,12.451,0,0,0-24.765,0,13.135,13.135,0,0,0,.821,4.515,1.258,1.258,0,0,0,2.326-.958,10.261,10.261,0,0,1-.684-3.557,9.851,9.851,0,0,1,19.7,0,7.936,7.936,0,0,1-.684,3.557,1.368,1.368,0,0,0,.821,1.779Z" transform="translate(5.604 2.674)"/>
      <path id="Path_1461-2" data-name="Path 1461" class="cls-3" d="M40.488,49.508h.684a1.1,1.1,0,0,0,.958-.547,1.231,1.231,0,0,0-.274-1.779,18.608,18.608,0,0,1-8.893-16.008A18.881,18.881,0,1,1,61.969,47.319a1.231,1.231,0,0,0-.41,1.779,1.368,1.368,0,0,0,1.642.41,21.344,21.344,0,1,0-22.712,0Z" transform="translate(1.583)"/>
    </g>
  </g>
</svg>
