<svg xmlns="http://www.w3.org/2000/svg" xmlns:xlink="http://www.w3.org/1999/xlink" width="120" height="120" viewBox="0 0 120 120">
  <defs>
    <style>
      .cls-1 {
        clip-path: url(#clip-_1);
      }

      .cls-2 {
        opacity: 0.2;
      }

      .cls-3 {
        fill: #00e0a0;
        stroke: #00e0a0;
      }
    </style>
    <clipPath id="clip-_1">
      <rect width="120" height="120"/>
    </clipPath>
  </defs>
  <g id="_1" data-name="1" class="cls-1">
    <g id="Group_243" data-name="Group 243">
      <g id="noun_click_3333598" class="cls-2" transform="translate(2 7.4)">
        <g id="Group_242" data-name="Group 242" transform="translate(25.382)">
          <g id="Group_238" data-name="Group 238" transform="translate(16.763 5.592)">
            <g id="Group_234" data-name="Group 234" transform="translate(15.638 65.261)">
              <path id="Path_1466" data-name="Path 1466" class="cls-3" d="M96.664,85.677H60a.844.844,0,0,1,0-1.687H96.664a.844.844,0,1,1,0,1.687Z" transform="translate(-59.157 -83.99)"/>
            </g>
            <g id="Group_235" data-name="Group 235" transform="translate(22.156 69.194)">
              <path id="Path_1467" data-name="Path 1467" class="cls-3" d="M71.723,98.333a4.84,4.84,0,1,1,4.833-4.84A4.846,4.846,0,0,1,71.723,98.333Zm0-7.994a3.153,3.153,0,1,0,3.146,3.154A3.157,3.157,0,0,0,71.723,90.339Z" transform="translate(-66.883 -88.652)"/>
            </g>
            <g id="Group_236" data-name="Group 236" transform="translate(0 5.232)">
              <path id="Path_1468" data-name="Path 1468" class="cls-3" d="M93.76,14.518h-52.3a.844.844,0,1,1,0-1.687h52.3a.844.844,0,1,1,0,1.687Z" transform="translate(-40.619 -12.831)"/>
            </g>
            <g id="Group_237" data-name="Group 237" transform="translate(22.006)">
              <path id="Path_1469" data-name="Path 1469" class="cls-3" d="M75.834,8.316H67.55a.844.844,0,0,1,0-1.687h8.284a.844.844,0,0,1,0,1.687Z" transform="translate(-66.706 -6.629)"/>
            </g>
          </g>
          <g id="Group_241" data-name="Group 241">
            <g id="Group_239" data-name="Group 239">
              <path id="Path_1470" data-name="Path 1470" class="cls-3" d="M59.567,93.341H32.544a.911.911,0,0,1-.778-.41c-16.853-26.991,4.7-50.606,7.214-53.208l.007-34.5c0-2.878,2.6-5.219,5.8-5.219H90.344a5.533,5.533,0,0,1,5.789,5.22V79.181a5.543,5.543,0,0,1-5.8,5.229H59.027a22.714,22.714,0,0,1,1.434,7.8v.33A.852.852,0,0,1,59.567,93.341Zm-26.5-1.61h25.6a21.608,21.608,0,0,0-1.523-7.311c-.063-.162-.127-.331-.191-.506a.8.8,0,0,1-.044-.12c-1.531-4.275-3.2-12.554.637-23.657A19.462,19.462,0,0,0,58.674,53.8V53.47a4.056,4.056,0,0,0-4.244-3.826,4.205,4.205,0,0,0-4.1,2.825L46.358,65.691a3.723,3.723,0,0,1-3.626,2.5A3.591,3.591,0,0,1,38.974,64.8l.005-22.537C33.927,48.144,18.979,68.64,33.069,91.731ZM58.437,82.8h31.9a3.836,3.836,0,0,0,4.014-3.619V5.22a3.827,3.827,0,0,0-4-3.609H44.787A3.832,3.832,0,0,0,40.773,5.22L40.76,64.8a1.884,1.884,0,0,0,1.972,1.778,1.954,1.954,0,0,0,1.9-1.312l3.977-13.222a5.975,5.975,0,0,1,5.819-4.014c3.325,0,6.03,2.439,6.03,5.437V53.8a20.926,20.926,0,0,1-1.207,6.817C55.705,70.884,57.032,78.6,58.437,82.8Z" transform="translate(-25.382)"/>
            </g>
            <g id="Group_240" data-name="Group 240" transform="translate(5.923 91.654)">
              <path id="Path_1471" data-name="Path 1471" class="cls-3" d="M58.777,127.488H33.247a.843.843,0,0,1-.844-.844V114.786a.844.844,0,0,1,1.687,0V125.8H57.933V114.786a.844.844,0,1,1,1.687,0v11.859A.843.843,0,0,1,58.777,127.488Z" transform="translate(-32.403 -113.942)"/>
            </g>
          </g>
        </g>
      </g>
      <g id="noun_click_3333598-2" data-name="noun_click_3333598" transform="translate(-2 7.4)">
        <g id="Group_242-2" data-name="Group 242" transform="translate(25.382)">
          <g id="Group_238-2" data-name="Group 238" transform="translate(16.763 5.592)">
            <g id="Group_234-2" data-name="Group 234" transform="translate(15.638 65.261)">
              <path id="Path_1466-2" data-name="Path 1466" class="cls-3" d="M96.664,85.677H60a.844.844,0,0,1,0-1.687H96.664a.844.844,0,1,1,0,1.687Z" transform="translate(-59.157 -83.99)"/>
            </g>
            <g id="Group_235-2" data-name="Group 235" transform="translate(22.156 69.194)">
              <path id="Path_1467-2" data-name="Path 1467" class="cls-3" d="M71.723,98.333a4.84,4.84,0,1,1,4.833-4.84A4.846,4.846,0,0,1,71.723,98.333Zm0-7.994a3.153,3.153,0,1,0,3.146,3.154A3.157,3.157,0,0,0,71.723,90.339Z" transform="translate(-66.883 -88.652)"/>
            </g>
            <g id="Group_236-2" data-name="Group 236" transform="translate(0 5.232)">
              <path id="Path_1468-2" data-name="Path 1468" class="cls-3" d="M93.76,14.518h-52.3a.844.844,0,1,1,0-1.687h52.3a.844.844,0,1,1,0,1.687Z" transform="translate(-40.619 -12.831)"/>
            </g>
            <g id="Group_237-2" data-name="Group 237" transform="translate(22.006)">
              <path id="Path_1469-2" data-name="Path 1469" class="cls-3" d="M75.834,8.316H67.55a.844.844,0,0,1,0-1.687h8.284a.844.844,0,0,1,0,1.687Z" transform="translate(-66.706 -6.629)"/>
            </g>
          </g>
          <g id="Group_241-2" data-name="Group 241">
            <g id="Group_239-2" data-name="Group 239">
              <path id="Path_1470-2" data-name="Path 1470" class="cls-3" d="M59.567,93.341H32.544a.911.911,0,0,1-.778-.41c-16.853-26.991,4.7-50.606,7.214-53.208l.007-34.5c0-2.878,2.6-5.219,5.8-5.219H90.344a5.533,5.533,0,0,1,5.789,5.22V79.181a5.543,5.543,0,0,1-5.8,5.229H59.027a22.714,22.714,0,0,1,1.434,7.8v.33A.852.852,0,0,1,59.567,93.341Zm-26.5-1.61h25.6a21.608,21.608,0,0,0-1.523-7.311c-.063-.162-.127-.331-.191-.506a.8.8,0,0,1-.044-.12c-1.531-4.275-3.2-12.554.637-23.657A19.462,19.462,0,0,0,58.674,53.8V53.47a4.056,4.056,0,0,0-4.244-3.826,4.205,4.205,0,0,0-4.1,2.825L46.358,65.691a3.723,3.723,0,0,1-3.626,2.5A3.591,3.591,0,0,1,38.974,64.8l.005-22.537C33.927,48.144,18.979,68.64,33.069,91.731ZM58.437,82.8h31.9a3.836,3.836,0,0,0,4.014-3.619V5.22a3.827,3.827,0,0,0-4-3.609H44.787A3.832,3.832,0,0,0,40.773,5.22L40.76,64.8a1.884,1.884,0,0,0,1.972,1.778,1.954,1.954,0,0,0,1.9-1.312l3.977-13.222a5.975,5.975,0,0,1,5.819-4.014c3.325,0,6.03,2.439,6.03,5.437V53.8a20.926,20.926,0,0,1-1.207,6.817C55.705,70.884,57.032,78.6,58.437,82.8Z" transform="translate(-25.382)"/>
            </g>
            <g id="Group_240-2" data-name="Group 240" transform="translate(5.923 91.654)">
              <path id="Path_1471-2" data-name="Path 1471" class="cls-3" d="M58.777,127.488H33.247a.843.843,0,0,1-.844-.844V114.786a.844.844,0,0,1,1.687,0V125.8H57.933V114.786a.844.844,0,1,1,1.687,0v11.859A.843.843,0,0,1,58.777,127.488Z" transform="translate(-32.403 -113.942)"/>
            </g>
          </g>
        </g>
      </g>
    </g>
  </g>
</svg>
