<svg xmlns="http://www.w3.org/2000/svg" xmlns:xlink="http://www.w3.org/1999/xlink" width="120" height="120" viewBox="0 0 120 120">
  <defs>
    <style>
      .cls-1 {
        clip-path: url(#clip-_2);
      }

      .cls-2 {
        opacity: 0.2;
      }

      .cls-3 {
        fill: #00e0a0;
      }
    </style>
    <clipPath id="clip-_2">
      <rect width="120" height="120"/>
    </clipPath>
  </defs>
  <g id="_2" data-name="2" class="cls-1">
    <g id="Group_249" data-name="Group 249">
      <g id="Group_248" data-name="Group 248" transform="translate(-2.4 -2.351)">
        <g id="Group_247" data-name="Group 247" transform="translate(18.9 17.251)">
          <g id="Group_246" data-name="Group 246">
            <g id="Group_245" data-name="Group 245" transform="translate(0 0)">
              <g id="Group_244" data-name="Group 244">
                <g id="noun_people_2196505" class="cls-2" transform="translate(4.201)">
                  <path id="Path_1462" data-name="Path 1462" class="cls-3" d="M43.248,53.756A18.028,18.028,0,1,1,61.276,35.763,18.028,18.028,0,0,1,43.248,53.756Zm0-33.695a15.667,15.667,0,1,0,15.667,15.7,15.667,15.667,0,0,0-15.667-15.7Z" transform="translate(-12.552 -16.353)"/>
                  <path id="Path_1463" data-name="Path 1463" class="cls-3" d="M75.032,89.436h-59.7l-.236-.968a34.238,34.238,0,0,1-.6-6.352c0-17.579,13.742-31.876,30.637-31.876s30.7,14.309,30.7,31.876a34.238,34.238,0,0,1-.6,6.34ZM17.3,87.075H73.06a30.7,30.7,0,0,0,.4-4.947c0-16.292-12.692-29.515-28.335-29.515S16.851,65.859,16.851,82.128a30.7,30.7,0,0,0,.449,4.947Z" transform="translate(-14.49 -3.236)"/>
                  <path id="Path_1464" data-name="Path 1464" class="cls-3" d="M66.673,45.343a14.167,14.167,0,0,1-8.43-2.739l-.767-.543.366-.874A18.5,18.5,0,0,0,55.7,23.053L55.15,22.3l.6-.72A14.392,14.392,0,1,1,66.673,45.343ZM60.38,41.2a11.9,11.9,0,0,0,6.293,1.783,12.03,12.03,0,1,0-8.512-20.531A20.7,20.7,0,0,1,61.7,34.01,20.92,20.92,0,0,1,60.38,41.2Z" transform="translate(-7.146 -16.559)"/>
                  <path id="Path_1465" data-name="Path 1465" class="cls-3" d="M91.206,73.9H71.95l-.236-.885A32.03,32.03,0,0,0,63.721,58.7a31.239,31.239,0,0,0-9.917-7c-.638-.272-1.275-.531-1.924-.767l-1.83-.661,1.429-1.3A23.742,23.742,0,0,1,67.594,42.61c13.388,0,24.273,11.346,24.273,25.3a27.035,27.035,0,0,1-.484,5.053ZM73.757,71.535H89.234a25.287,25.287,0,0,0,.272-3.672c0-12.644-9.834-22.939-21.912-22.939a21.251,21.251,0,0,0-12.987,4.5l.213.094a33.458,33.458,0,0,1,10.625,7.52,34.367,34.367,0,0,1,8.311,14.5Z" transform="translate(-8.068 -7.184)"/>
                </g>
                <g id="noun_people_2196505-2" data-name="noun_people_2196505">
                  <path id="Path_1462-2" data-name="Path 1462" class="cls-3" d="M43.248,53.756A18.028,18.028,0,1,1,61.276,35.763,18.028,18.028,0,0,1,43.248,53.756Zm0-33.695a15.667,15.667,0,1,0,15.667,15.7,15.667,15.667,0,0,0-15.667-15.7Z" transform="translate(-12.552 -16.353)"/>
                  <path id="Path_1463-2" data-name="Path 1463" class="cls-3" d="M75.032,89.436h-59.7l-.236-.968a34.238,34.238,0,0,1-.6-6.352c0-17.579,13.742-31.876,30.637-31.876s30.7,14.309,30.7,31.876a34.238,34.238,0,0,1-.6,6.34ZM17.3,87.075H73.06a30.7,30.7,0,0,0,.4-4.947c0-16.292-12.692-29.515-28.335-29.515S16.851,65.859,16.851,82.128a30.7,30.7,0,0,0,.449,4.947Z" transform="translate(-14.49 -3.236)"/>
                  <path id="Path_1464-2" data-name="Path 1464" class="cls-3" d="M66.673,45.343a14.167,14.167,0,0,1-8.43-2.739l-.767-.543.366-.874A18.5,18.5,0,0,0,55.7,23.053L55.15,22.3l.6-.72A14.392,14.392,0,1,1,66.673,45.343ZM60.38,41.2a11.9,11.9,0,0,0,6.293,1.783,12.03,12.03,0,1,0-8.512-20.531A20.7,20.7,0,0,1,61.7,34.01,20.92,20.92,0,0,1,60.38,41.2Z" transform="translate(-7.146 -16.559)"/>
                  <path id="Path_1465-2" data-name="Path 1465" class="cls-3" d="M91.206,73.9H71.95l-.236-.885A32.03,32.03,0,0,0,63.721,58.7a31.239,31.239,0,0,0-9.917-7c-.638-.272-1.275-.531-1.924-.767l-1.83-.661,1.429-1.3A23.742,23.742,0,0,1,67.594,42.61c13.388,0,24.273,11.346,24.273,25.3a27.035,27.035,0,0,1-.484,5.053ZM73.757,71.535H89.234a25.287,25.287,0,0,0,.272-3.672c0-12.644-9.834-22.939-21.912-22.939a21.251,21.251,0,0,0-12.987,4.5l.213.094a33.458,33.458,0,0,1,10.625,7.52,34.367,34.367,0,0,1,8.311,14.5Z" transform="translate(-8.068 -7.184)"/>
                </g>
              </g>
            </g>
          </g>
        </g>
      </g>
    </g>
  </g>
</svg>
